<svg width="58" height="57" viewBox="0 0 58 57" fill="none" xmlns="http://www.w3.org/2000/svg">
<path d="M29 0C13.0088 0 0 12.7845 0 28.5C0 44.2155 13.0088 57 29 57C44.9912 57 58 44.2155 58 28.5C58 12.7845 44.9912 0 29 0ZM41.6875 30.8749H31.4165V40.9688C31.4165 42.2799 30.3342 43.3436 29 43.3436C27.6658 43.3436 26.5835 42.2799 26.5835 40.9688V30.8749H16.3125C14.9783 30.8749 13.896 29.8111 13.896 28.5C13.896 27.1889 14.9783 26.1251 16.3125 26.1251H26.5835V16.0312C26.5835 14.7201 27.6658 13.6564 29 13.6564C30.3342 13.6564 31.4165 14.7201 31.4165 16.0312V26.1251H41.6875C43.0217 26.1251 44.104 27.1889 44.104 28.5C44.104 29.8111 43.0217 30.8749 41.6875 30.8749Z" fill="white"/>
</svg>
