<svg width="55" height="57" viewBox="0 0 55 57" fill="none" xmlns="http://www.w3.org/2000/svg">
<path d="M43.6059 7.46808H38.6301V5.16115C38.6301 4.41477 37.8445 4.07554 37.1243 4.07554H33.2616C32.345 1.36146 30.0535 0.00441619 27.4346 0.00441619C24.8446 -0.096495 22.4888 1.54938 21.6077 4.07554H17.8104C17.0902 4.07554 16.37 4.41477 16.37 5.16115V7.46808H11.3941C8.44541 7.50067 6.03308 9.91137 5.89448 12.964V51.8431C5.89448 54.8287 8.51333 56.9999 11.3941 56.9999H43.6059C46.4867 56.9999 49.1055 54.8287 49.1055 51.8431V12.9642C48.9669 9.91137 46.5546 7.50067 43.6059 7.46808ZM18.9887 6.78962H22.5897C23.2183 6.71014 23.7232 6.21454 23.8337 5.5683C24.2214 3.81839 25.7028 2.56226 27.4346 2.51499C29.1505 2.56888 30.6095 3.82891 30.9701 5.5683C31.0875 6.23688 31.6257 6.73884 32.2795 6.78962H36.0114V12.2178H18.9887V6.78962ZM46.4867 51.8433C46.4867 53.336 45.0463 54.2859 43.6059 54.2859H11.3941C9.95371 54.2859 8.51333 53.336 8.51333 51.8433V12.9642C8.64692 11.4104 9.88905 10.2107 11.3941 10.1823H16.3699V13.6427C16.4391 14.403 17.0744 14.9717 17.8103 14.932H37.1242C37.8736 14.9745 38.5289 14.4135 38.63 13.6427V10.1822H43.6058C45.1107 10.2107 46.353 11.4102 46.4865 12.964V51.8433H46.4867Z" fill="white"/>
<path d="M22.4587 30.3343C21.9676 29.7978 21.1523 29.7675 20.6255 30.2665L16.4353 34.4054L14.6676 32.5055C14.1765 31.969 13.3612 31.9388 12.8343 32.4377C12.3272 32.9883 12.3272 33.8547 12.8343 34.4054L15.5186 37.2552C15.7509 37.5248 16.0865 37.6739 16.4352 37.6623C16.7805 37.6573 17.11 37.5109 17.3517 37.2552L22.4585 32.2342C22.9648 31.7529 22.9986 30.9373 22.534 30.4127C22.5102 30.3853 22.485 30.3592 22.4587 30.3343Z" fill="white"/>
<path d="M41.249 33.2518H26.1906C25.4674 33.2518 24.8812 33.8594 24.8812 34.6089C24.8812 35.3584 25.4674 35.9659 26.1906 35.9659H41.249C41.9722 35.9659 42.5584 35.3584 42.5584 34.6089C42.5584 33.8594 41.9722 33.2518 41.249 33.2518Z" fill="white"/>
<path d="M22.4587 19.4779C21.9676 18.9414 21.1523 18.9112 20.6255 19.4101L16.4353 23.5491L14.6676 21.6492C14.1765 21.1127 13.3612 21.0824 12.8343 21.5814C12.3272 22.132 12.3272 22.9984 12.8343 23.5491L15.5186 26.3989C15.7509 26.6685 16.0865 26.8176 16.4352 26.806C16.7805 26.8009 17.11 26.6546 17.3517 26.3989L22.4585 21.3779C22.9648 20.8965 22.9986 20.0809 22.534 19.5564C22.5102 19.529 22.485 19.5029 22.4587 19.4779Z" fill="white"/>
<path d="M41.249 22.3955H26.1906C25.4674 22.3955 24.8812 23.0031 24.8812 23.7526C24.8812 24.5021 25.4674 25.1096 26.1906 25.1096H41.249C41.9722 25.1096 42.5584 24.5021 42.5584 23.7526C42.5584 23.0031 41.9722 22.3955 41.249 22.3955Z" fill="white"/>
<path d="M22.4587 41.1905C21.9676 40.654 21.1523 40.6238 20.6255 41.1227L16.4353 45.2616L14.6676 43.3617C14.1765 42.8252 13.3612 42.7951 12.8343 43.2939C12.3272 43.8446 12.3272 44.7109 12.8343 45.2616L15.5186 48.1114C15.7509 48.381 16.0865 48.5301 16.4352 48.5185C16.7805 48.5135 17.11 48.3671 17.3517 48.1114L22.4585 43.0904C22.9648 42.6091 22.9986 41.7935 22.534 41.2689C22.5102 41.2416 22.485 41.2155 22.4587 41.1905Z" fill="white"/>
<path d="M41.249 44.1082H26.1906C25.4674 44.1082 24.8812 44.7157 24.8812 45.4652C24.8812 46.2147 25.4674 46.8223 26.1906 46.8223H41.249C41.9722 46.8223 42.5584 46.2147 42.5584 45.4652C42.5584 44.7157 41.9722 44.1082 41.249 44.1082Z" fill="white"/>
</svg>
